<svg width="16" height="16" viewBox="0 0 16 16" fill="none" xmlns="http://www.w3.org/2000/svg">
<path d="M12.241 5.69749C11.6998 5.13184 11.0514 4.67966 10.3337 4.36733C9.61826 4.06598 8.84881 3.91404 8.07258 3.92082C7.63018 3.91976 7.18898 3.96753 6.75704 4.06326C6.33742 4.15636 5.93018 4.29843 5.54368 4.48656C4.99399 4.7574 4.49075 5.11383 4.05275 5.54254V0.331773C4.05294 0.288002 4.04442 0.244638 4.02771 0.204188C4.011 0.163738 3.98643 0.127015 3.95541 0.0961503C3.9244 0.0652847 3.88757 0.0408922 3.84705 0.0243889C3.80654 0.0078855 3.76315 -0.000399565 3.71941 1.48098e-05H2.33157C2.28798 -0.000162365 2.24478 0.00829747 2.20447 0.0249073C2.16417 0.0415167 2.12754 0.0659469 2.09672 0.0967888C2.0659 0.12763 2.04148 0.164275 2.02488 0.204604C2.00828 0.244933 1.99983 0.288157 2 0.331773V10.6234C2.00751 11.166 2.10944 11.7031 2.30122 12.2107C2.50364 12.7594 2.7849 13.2756 3.13616 13.7431C3.43691 14.1449 3.79822 14.4976 4.20716 14.7884C4.58338 15.0538 4.9863 15.279 5.40936 15.4604C6.23652 15.8214 7.13002 16.0051 8.0324 15.9998C8.81299 16.0063 9.58694 15.8558 10.3083 15.5573C11.0293 15.2484 11.6816 14.7989 12.2272 14.2352C12.7892 13.6821 13.2332 13.0207 13.5323 12.291C13.8315 11.5613 13.9795 10.7784 13.9676 9.98976C13.9746 9.19209 13.8283 8.40047 13.5365 7.65813C13.2352 6.92605 12.7939 6.2599 12.2374 5.69706M4.07864 8.81145C4.16296 8.47134 4.29217 8.144 4.46286 7.83806C4.62932 7.53793 4.83674 7.26248 5.07913 7.01957C5.32887 6.77172 5.61164 6.55955 5.91942 6.3891C6.2284 6.2142 6.55828 6.07919 6.9012 5.98726C7.23855 5.89785 7.58613 5.85283 7.93515 5.85332C8.27595 5.85283 8.61524 5.89785 8.94413 5.98726C9.27669 6.07842 9.5956 6.21352 9.8924 6.3891C10.1948 6.56352 10.4712 6.77951 10.7135 7.03075C10.963 7.29042 11.1776 7.58145 11.3521 7.89654C11.5293 8.21235 11.6676 8.5485 11.764 8.89762C11.9446 9.58202 11.9446 10.3016 11.764 10.986C11.6709 11.331 11.5343 11.6627 11.3574 11.9732C11.1839 12.282 10.9712 12.5672 10.7246 12.8216C10.4823 13.0696 10.2081 13.2845 9.90934 13.4605C9.61231 13.6375 9.29233 13.7728 8.95841 13.8624C8.10274 14.0828 7.19934 14.0276 6.37683 13.7048C5.40322 13.2829 4.63438 12.495 4.23616 11.511C4.03916 10.9957 3.94164 10.4477 3.94878 9.89599C3.94753 9.53066 3.99115 9.16614 4.07864 8.81145Z" fill="white"/>
<path d="M4.92058 10.3173C4.92196 10.5482 4.97896 10.7755 5.08688 10.9806C5.21367 11.205 5.39956 11.3915 5.62495 11.5205C5.85035 11.6495 6.10689 11.7162 6.36753 11.7136C6.39206 11.7141 6.41658 11.7132 6.44101 11.711C6.83892 11.6965 7.21894 11.5444 7.51448 11.2814C7.76397 11.0552 7.9731 10.7892 8.13299 10.4946C8.2922 10.2005 8.51222 9.94244 8.77885 9.73728C8.92209 9.62904 9.09723 9.56969 9.27775 9.56824C9.32892 9.56882 9.37994 9.57332 9.43038 9.58165C9.62629 9.61462 9.80395 9.71502 9.9317 9.86498C10.0595 10.015 10.1291 10.2047 10.1281 10.4005C10.1283 10.4748 10.1191 10.5488 10.1008 10.6207C10.0542 10.8045 9.94448 10.9668 9.79025 11.0798C9.64357 11.1867 9.46586 11.2441 9.28346 11.2437C9.06315 11.2423 8.85132 11.1599 8.68954 11.0126C8.66606 10.9894 8.63944 10.9696 8.61034 10.9537C8.57946 10.9372 8.54475 10.9288 8.5096 10.9294C8.48642 10.9292 8.46338 10.9329 8.4414 10.9402C8.39018 10.9544 8.34516 10.9849 8.31341 11.0269C8.28368 11.0657 8.26747 11.1128 8.26718 11.1613C8.268 11.1973 8.27623 11.2328 8.29138 11.2656C8.30648 11.2984 8.32822 11.3278 8.35518 11.352C8.40596 11.3987 8.46071 11.4409 8.51885 11.4782C8.74197 11.6313 9.00715 11.7137 9.27906 11.7145C9.57531 11.7149 9.86281 11.6155 10.0938 11.4327C10.2523 11.3106 10.3817 11.1556 10.4726 10.9788C10.5581 10.8058 10.6019 10.6156 10.6006 10.4231C10.6001 10.3593 10.5955 10.2956 10.587 10.2324C10.5638 10.0363 10.4937 9.84853 10.3824 9.68442C10.2674 9.52216 10.1188 9.38579 9.94641 9.28428C9.74871 9.16534 9.52124 9.10309 9.28961 9.10439C9.2076 9.10536 9.12575 9.11161 9.04457 9.12303C8.89556 9.14709 8.75237 9.19806 8.6222 9.27344C8.49571 9.34721 8.37861 9.43555 8.27337 9.53658C8.03762 9.76938 7.83581 10.0333 7.67369 10.3208C7.53597 10.5669 7.35516 10.787 7.13965 10.971C6.91687 11.1485 6.63858 11.2444 6.35214 11.2424H6.30814C6.17723 11.2391 6.04837 11.2095 5.92936 11.1557C5.80959 11.0976 5.70221 11.0173 5.61304 10.9194C5.46406 10.7486 5.38364 10.53 5.38691 10.3047C5.38639 10.1843 5.40955 10.0649 5.4551 9.95318C5.54558 9.73051 5.72061 9.55135 5.943 9.4538C6.06185 9.39993 6.19096 9.37156 6.32178 9.37054C6.37111 9.36972 6.42039 9.37422 6.46872 9.384C6.67258 9.41905 6.86183 9.51131 7.01379 9.64971C7.03354 9.66627 7.05561 9.67987 7.07933 9.69004C7.10339 9.70127 7.12905 9.70858 7.15548 9.71172H7.18012C7.2248 9.71201 7.26856 9.69885 7.3055 9.67401C7.34059 9.64836 7.36944 9.61534 7.38997 9.57734C7.40652 9.54762 7.41587 9.51456 7.41722 9.48067C7.41751 9.45037 7.40996 9.42055 7.39525 9.39397C7.38198 9.36803 7.36446 9.3444 7.3433 9.32417C7.22732 9.20198 7.08737 9.1042 6.93198 9.03677C6.86948 9.0099 6.8066 8.9856 6.74412 8.95873C6.79493 8.83582 6.87311 8.72574 6.97288 8.63662C7.0742 8.54368 7.1914 8.46913 7.3191 8.41641C7.44346 8.36559 7.57692 8.34007 7.71155 8.34143C7.76717 8.34109 7.82274 8.34472 7.87783 8.35227C8.13614 8.38471 8.37353 8.50878 8.54567 8.70125C8.56842 8.72874 8.58929 8.75769 8.60816 8.78795C8.63014 8.81999 8.64907 8.85514 8.67632 8.8898C8.70053 8.92015 8.7304 8.94561 8.76433 8.96478C8.79933 8.98391 8.83868 8.99407 8.87872 8.99426C8.88874 8.99475 8.89881 8.99388 8.90863 8.9917C8.95206 8.987 8.99296 8.96914 9.02564 8.94053C9.05701 8.9125 9.08126 8.8776 9.09646 8.83863C9.10624 8.81578 9.11088 8.79109 9.11011 8.76626C9.1089 8.73789 9.10343 8.70982 9.09385 8.68305C9.08363 8.65981 9.07172 8.63735 9.05822 8.61586C8.95491 8.4519 8.82295 8.30735 8.66843 8.18885C8.51241 8.07136 8.33475 7.98481 8.14533 7.93393C8.00693 7.89467 7.86389 7.87351 7.71992 7.87109C7.51874 7.8709 7.31958 7.91011 7.13389 7.9864C6.86227 8.09092 6.62873 8.27337 6.46344 8.51008C6.37898 8.63624 6.31078 8.768 6.23159 8.905C6.22324 8.905 6.21532 8.90756 6.20696 8.90756C5.86645 8.93133 5.54699 9.07869 5.31036 9.32112C5.18338 9.44916 5.08177 9.59942 5.01076 9.76415C4.94023 9.93 4.90403 10.108 4.9043 10.2878C4.92058 10.3013 4.92058 10.3095 4.92058 10.3173Z" fill="white" stroke="white" stroke-width="0.242042"/>
</svg>
